<svg width="130" height="30" viewBox="0 0 130 30" fill="none" xmlns="http://www.w3.org/2000/svg">
<path d="M20.5865 2.22819V0.757726C20.5883 0.330924 20.2019 0.00763661 19.6862 0L5.01837 1.91934L19.2472 1.93376C19.7302 1.93461 20.1855 2.04067 20.5865 2.22819Z" fill="#1B1B1B"/>
<path d="M19.6724 2.38342H0V29.9999H19.6724C20.7978 29.9999 21.7188 29.0937 21.7188 27.9864V4.39694C21.7188 3.28963 20.7978 2.38342 19.6724 2.38342ZM6.50858 13.0764C6.48875 12.6665 6.44131 12.3331 6.36801 12.0751C6.29471 11.818 6.18087 11.6331 6.02995 11.5202C5.8911 11.4167 5.70482 11.3607 5.47111 11.353C5.43834 11.3522 5.41074 11.3259 5.41074 11.2919C5.41074 11.258 5.43834 11.2317 5.47369 11.2317H8.66029C8.69392 11.2317 8.72238 11.2589 8.72238 11.2919C8.72238 11.325 8.69478 11.3513 8.66201 11.353C8.42916 11.3615 8.24202 11.4175 8.10317 11.5202C7.95225 11.6331 7.84014 11.818 7.76597 12.0751C7.69267 12.3331 7.64437 12.6665 7.62454 13.0764C7.6047 13.4862 7.59435 13.9894 7.59435 14.585V19.3638C7.59435 19.9519 7.67455 20.4618 7.83324 20.8971C7.99278 21.3307 8.21184 21.693 8.48953 21.9824C8.76723 22.2709 9.09408 22.4864 9.47095 22.6281C9.84609 22.7681 10.2514 22.8394 10.6852 22.8394C11.119 22.8394 11.5209 22.7672 11.8926 22.6221C12.2643 22.477 12.586 22.2598 12.855 21.9705C13.125 21.682 13.3371 21.3197 13.4932 20.8852C13.6484 20.4508 13.7261 19.9442 13.7261 19.3647V14.5859C13.7261 13.9902 13.7157 13.4879 13.6959 13.0772C13.676 12.6674 13.6286 12.3339 13.5553 12.076C13.482 11.8189 13.369 11.6339 13.2172 11.521C13.0784 11.4175 12.8921 11.3615 12.6593 11.3539C12.6256 11.353 12.598 11.3267 12.598 11.2928C12.598 11.2589 12.6265 11.2326 12.661 11.2326H15.8476C15.8821 11.2326 15.9097 11.2597 15.9097 11.2928C15.9097 11.3259 15.8821 11.3522 15.8493 11.3539C15.6165 11.3624 15.4293 11.4184 15.2905 11.521C15.1395 11.6339 15.0274 11.8189 14.9533 12.076C14.88 12.3339 14.8325 12.6674 14.8118 13.0772C14.792 13.4871 14.7816 13.9902 14.7816 14.5859V19.9425C14.7816 20.5458 14.673 21.0727 14.4565 21.5225C14.2401 21.973 13.9477 22.3472 13.5795 22.6442C13.2121 22.942 12.7791 23.166 12.2798 23.3145C11.7813 23.463 11.2501 23.5368 10.6861 23.5368C10.1221 23.5368 9.58824 23.4647 9.08545 23.3205C8.58267 23.1754 8.14284 22.9539 7.76769 22.6569C7.39168 22.3591 7.09329 21.9849 6.87252 21.5352C6.65174 21.0846 6.54135 20.5535 6.54135 19.9425V14.5859C6.54135 13.9902 6.53101 13.4879 6.51117 13.0772L6.50858 13.0764ZM2.04304 20.3897C0.668365 17.6057 0.837398 14.137 2.59498 11.5457C4.30341 8.92375 7.46413 7.38031 10.6093 7.50419C12.2419 7.54322 13.7631 7.97766 15.0956 8.6989C13.8166 8.04045 12.3048 7.68238 10.611 7.73753C7.64954 7.87584 4.85535 9.53723 3.25472 11.9716C1.63081 14.389 1.2022 17.5735 2.26209 20.2989C2.88648 21.839 3.8196 23.0523 4.93641 23.9407C3.73939 23.032 2.73038 21.839 2.04304 20.3897ZM18.8712 22.0205C16.0356 26.2419 10.7102 26.9818 6.61724 24.9767C10.4248 26.7383 15.3802 25.5588 18.0829 21.5131C20.7642 17.4606 19.8811 12.5282 16.7246 9.80026C20.2226 12.6861 21.6619 17.7771 18.8712 22.0205Z" fill="#1B1B1B"/>
<path d="M24.5243 8.33496H29.5064V8.51654C29.1123 8.51654 28.8018 8.60139 28.5741 8.7711C28.3464 8.9408 28.1774 9.21911 28.067 9.60603C27.9566 9.9938 27.8851 10.4953 27.8549 11.113C27.8238 11.7307 27.8083 12.4867 27.8083 13.3828V21.4436C27.8083 22.3278 27.9282 23.0957 28.1679 23.7499C28.4077 24.4032 28.7371 24.948 29.1554 25.3841C29.5736 25.8202 30.0661 26.1435 30.6318 26.3557C31.1976 26.5669 31.8064 26.673 32.4584 26.673C33.1104 26.673 33.7158 26.5644 34.2763 26.3463C34.836 26.1283 35.319 25.8016 35.7252 25.3663C36.1314 24.931 36.4505 24.3863 36.685 23.7321C36.9188 23.0787 37.0352 22.3159 37.0352 21.4445V13.3836C37.0352 12.4884 37.0197 11.7316 36.9895 11.1138C36.9584 10.4961 36.8877 9.99465 36.7773 9.60688C36.6669 9.21911 36.497 8.94164 36.2702 8.77194C36.0426 8.60309 35.7321 8.51739 35.338 8.51739V8.33581H40.3201V8.51739C39.926 8.51739 39.6155 8.60224 39.3878 8.77194C39.1602 8.94164 38.9911 9.21996 38.8799 9.60688C38.7695 9.99465 38.6979 10.4961 38.6677 11.1138C38.6367 11.7316 38.6211 12.4876 38.6211 13.3836V21.4445C38.6211 22.3524 38.4582 23.1449 38.1322 23.8228C37.8062 24.5008 37.3664 25.0634 36.8127 25.5114C36.259 25.9594 35.607 26.2954 34.8567 26.5194C34.1064 26.7434 33.307 26.8554 32.4575 26.8554C31.6081 26.8554 30.806 26.7468 30.0497 26.5288C29.2934 26.3107 28.6319 25.9781 28.0662 25.5301C27.5004 25.082 27.0511 24.5195 26.7191 23.8415C26.3871 23.1636 26.2206 22.3651 26.2206 21.4445V13.3836C26.2206 12.4884 26.2051 11.7316 26.174 11.1138C26.143 10.4961 26.0723 9.99465 25.9619 9.60688C25.8515 9.21911 25.6816 8.94164 25.4539 8.77194C25.2263 8.60309 24.9158 8.51739 24.5217 8.51739V8.33581L24.5243 8.33496Z" fill="#1B1B1B"/>
<path d="M44.6563 8.33496L54.9896 23.8398V15.924C54.9896 14.6046 54.9034 13.4761 54.7309 12.5376C54.5584 11.6 54.3282 10.8338 54.0393 10.2407C53.7504 9.6476 53.4183 9.21232 53.0432 8.93316C52.668 8.65484 52.2834 8.51569 51.8901 8.51569V8.33411H56.8723V8.51569C56.4782 8.51569 56.1677 8.60054 55.94 8.77024C55.7123 8.93995 55.5433 9.21825 55.4329 9.60518C55.3225 9.99295 55.2509 10.4944 55.2208 11.1121C55.1897 11.7299 55.1742 12.4859 55.1742 13.3819V26.8537H54.9896L43.3092 9.35147V18.9015C43.3092 20.2209 43.3954 21.3494 43.5679 22.2879C43.7404 23.2263 43.9707 23.9917 44.2596 24.5848C44.5485 25.1779 44.8805 25.6141 45.2557 25.8924C45.6308 26.1707 46.0154 26.3098 46.4087 26.3098V26.4914H41.4266V26.3098C41.8198 26.3098 42.1312 26.2258 42.3588 26.0553C42.5865 25.8856 42.7555 25.6081 42.8668 25.2203C42.9772 24.8334 43.0479 24.3311 43.0789 23.7134C43.1091 23.0957 43.1255 22.3396 43.1255 21.4436V13.3828C43.1255 12.4876 43.11 11.7307 43.0789 11.113C43.0479 10.4953 42.9772 9.99379 42.8668 9.60602C42.7564 9.21826 42.5865 8.94079 42.3588 8.77109C42.1312 8.60224 41.8207 8.51654 41.4266 8.51654V8.33496H44.6563Z" fill="#1B1B1B"/>
<path d="M57.9787 8.51655V8.33497H60.1934C60.6979 8.33497 61.1679 8.31715 61.6051 8.28066C62.0415 8.24418 62.4727 8.20175 62.897 8.15338C63.3213 8.10502 63.7577 8.06259 64.207 8.02611C64.6563 7.98962 65.1444 7.9718 65.674 7.9718C66.658 7.9718 67.5316 8.09908 68.2948 8.35278C69.0572 8.60734 69.6971 8.96117 70.2137 9.41512C70.7302 9.86908 71.1244 10.4079 71.3943 11.0307C71.6651 11.6543 71.8005 12.3348 71.8005 13.0731C71.8005 13.6908 71.6772 14.2864 71.4314 14.8617C71.1856 15.437 70.832 15.9419 70.3706 16.378C69.9092 16.8141 69.353 17.162 68.7001 17.4217C68.0482 17.6822 67.322 17.812 66.5226 17.812C66.0922 17.812 65.6921 17.7518 65.323 17.6304C64.9538 17.5099 64.6184 17.3759 64.3174 17.2308C64.0155 17.0857 63.7422 16.9525 63.4964 16.8311C63.2506 16.7098 63.0289 16.6495 62.8323 16.6495C62.7219 16.6495 62.6046 16.6767 62.4822 16.731C62.3589 16.7853 62.2976 16.916 62.2976 17.1213C62.2976 17.4115 62.5063 17.6635 62.9255 17.8748C63.3437 18.0869 63.8422 18.3169 64.42 18.5646C64.9978 18.8132 65.592 19.1128 66.2009 19.4632C66.8097 19.8145 67.3048 20.2744 67.6868 20.8429C68.0559 21.3995 68.4406 21.9986 68.8398 22.64C69.2391 23.2815 69.6583 23.8746 70.0946 24.4194C70.531 24.9641 70.9864 25.4147 71.4598 25.7719C71.9333 26.1291 72.4352 26.3073 72.9639 26.3073V26.4889H70.1404C69.9308 26.4889 69.7247 26.4074 69.522 26.2437C69.3185 26.0799 69.0701 25.7931 68.7743 25.3807C68.4794 24.9692 68.1008 24.4126 67.6394 23.7109C67.178 23.0091 66.5847 22.119 65.8585 21.0423C65.4152 20.377 64.9694 19.8561 64.5209 19.481C64.0716 19.106 63.6689 18.7912 63.3127 18.5366C62.9556 18.2821 62.6667 18.053 62.4451 17.8468C62.2235 17.6414 62.1131 17.3869 62.1131 17.084C62.1131 16.8659 62.1778 16.7089 62.3071 16.6122C62.4365 16.5155 62.5865 16.4671 62.759 16.4671C63.0298 16.4671 63.2911 16.5214 63.5429 16.63C63.7948 16.7386 64.0621 16.8574 64.3458 16.9838C64.6287 17.1111 64.9366 17.2291 65.2686 17.3377C65.6006 17.4463 65.9818 17.5014 66.413 17.5014C66.9908 17.5014 67.5135 17.3742 67.9818 17.1205C68.4492 16.8659 68.8493 16.5307 69.1814 16.1124C69.5134 15.695 69.7687 15.2232 69.9472 14.6963C70.1257 14.1702 70.2145 13.6339 70.2145 13.0892C70.2145 12.3391 70.0852 11.6611 69.8273 11.0561C69.5686 10.4512 69.1969 9.9395 68.7105 9.52203C68.2241 9.10457 67.6368 8.78383 66.9486 8.55982C66.2595 8.33581 65.4842 8.22381 64.6235 8.22381C63.9345 8.22381 63.3411 8.26963 62.8427 8.36042C62.3442 8.45121 61.8121 8.5997 61.2464 8.80504V21.4411C61.2464 22.3371 61.2619 23.0931 61.2921 23.7109C61.3222 24.3286 61.3938 24.8309 61.5042 25.2178C61.6146 25.6056 61.7836 25.8839 62.0113 26.0527C62.239 26.2224 62.5495 26.3073 62.9436 26.3073V26.4889H57.9796V26.3073C58.3728 26.3073 58.6841 26.2233 58.9118 26.0527C59.1395 25.883 59.3085 25.6056 59.4198 25.2178C59.5302 24.8309 59.6009 24.3286 59.6319 23.7109C59.6621 23.0931 59.6785 22.3371 59.6785 21.4411V13.3802C59.6785 12.485 59.663 11.7282 59.6319 11.1104C59.6009 10.4927 59.5302 9.99126 59.4198 9.60349C59.3094 9.21572 59.1395 8.93826 58.9118 8.76856C58.6841 8.5997 58.3737 8.514 57.9796 8.514L57.9787 8.51655Z" fill="#1B1B1B"/>
<path d="M73.5158 23.3137C73.5158 22.5637 73.6969 21.8882 74.06 21.2892C74.4231 20.6901 74.8784 20.1454 75.4252 19.655C75.9728 19.1645 76.5662 18.7174 77.2061 18.3118C77.846 17.9062 78.4393 17.5311 78.9869 17.1858C79.5346 16.8404 79.9899 16.5112 80.3521 16.1964C80.7152 15.8816 80.8963 15.5668 80.8963 15.252C80.8963 15.0823 80.8532 14.9584 80.7669 14.8795C80.6807 14.8006 80.5764 14.7616 80.453 14.7616C80.2314 14.7616 80.0253 14.8617 79.8347 15.0611C79.6441 15.2605 79.4535 15.4786 79.2629 15.7145C79.0723 15.9504 78.8722 16.1684 78.6635 16.3678C78.454 16.5681 78.2211 16.6674 77.9624 16.6674C77.7037 16.6674 77.5441 16.5672 77.4829 16.3678C77.4208 16.1684 77.4398 15.9478 77.5381 15.7051C77.821 14.9788 78.0823 14.3068 78.322 13.6899C78.5618 13.0722 78.7955 12.4672 79.0232 11.8741C79.2508 11.281 79.4811 10.6701 79.7148 10.0405C79.9485 9.41087 80.2133 8.72103 80.5082 7.97095H80.6928L86.5977 23.3129C87.0039 24.3175 87.385 25.0685 87.7421 25.564C88.0991 26.0604 88.5605 26.3081 89.1262 26.3081V26.4897H83.0739V26.3081C83.7259 26.3081 84.2183 26.2241 84.5503 26.0536C84.8823 25.8839 85.104 25.648 85.2144 25.3459C85.3248 25.0439 85.3403 24.6926 85.2609 24.2929C85.1807 23.8933 85.0548 23.4639 84.8823 23.004L82.5944 17.067C82.6677 17.6482 82.7048 18.3746 82.7048 19.246C82.7048 20.3473 82.5728 21.3639 82.3081 22.2964C82.0433 23.2289 81.6621 24.0299 81.1637 24.7019C80.6652 25.3739 80.0563 25.9 79.3371 26.281C78.6178 26.662 77.796 26.8529 76.8732 26.8529C76.3437 26.8529 75.8702 26.7562 75.4519 26.5627C75.0337 26.3692 74.6801 26.1121 74.3912 25.7914C74.1023 25.4707 73.8841 25.0956 73.7357 24.6654C73.5883 24.2361 73.5141 23.7847 73.5141 23.3129L73.5158 23.3137ZM75.0845 22.9684C75.0845 23.8279 75.3398 24.5449 75.8504 25.1202C76.3609 25.6955 77.0715 25.9823 77.9814 25.9823C78.7567 25.9823 79.4268 25.7736 79.9925 25.3561C80.5582 24.9386 81.0291 24.4032 81.4043 23.749C81.7794 23.0957 82.0588 22.3719 82.2442 21.5794C82.4288 20.7869 82.5211 20.0215 82.5211 19.2825C82.5211 18.6045 82.4995 18.0021 82.4564 17.476C82.4133 16.9491 82.3055 16.4136 82.1339 15.8689L79.9011 10.077L77.7787 15.633C77.6554 15.9478 77.6217 16.1684 77.6769 16.2957C77.7321 16.423 77.8339 16.4866 77.9814 16.4866C78.1901 16.4866 78.3936 16.3865 78.5902 16.1871C78.7869 15.9877 78.9869 15.7696 79.1896 15.5337C79.3923 15.2978 79.5984 15.0798 79.8079 14.8804C80.0166 14.681 80.2443 14.5809 80.491 14.5809C80.6635 14.5809 80.8075 14.6386 80.9248 14.7531C81.0412 14.8685 81.0998 15.0467 81.0998 15.2885C81.0998 15.6882 80.9524 16.0539 80.6574 16.3865C80.3625 16.72 79.9899 17.0466 79.5415 17.3665C79.0921 17.6873 78.6092 18.0173 78.0926 18.3559C77.576 18.6944 77.0931 19.0822 76.6438 19.5175C76.1945 19.9528 75.8228 20.45 75.5278 21.0066C75.2329 21.5633 75.0845 22.2166 75.0845 22.9676V22.9684Z" fill="#1B1B1B"/>
<path d="M84.8832 8.51654V8.33496H90.9356V8.51654C90.2836 8.51654 89.7912 8.60139 89.4592 8.7711C89.1271 8.9408 88.9055 9.17668 88.7951 9.4796C88.6847 9.78252 88.6692 10.133 88.7485 10.5326C88.8288 10.9323 88.9547 11.3616 89.1271 11.8215L94.1093 24.7486C94.8846 22.5942 95.684 20.4517 96.5085 18.3211C97.3321 16.1905 98.0953 14.0429 98.7964 11.8758C98.9189 11.5126 99.0026 11.1342 99.0457 10.7413C99.0888 10.3485 99.0457 9.98531 98.9163 9.65185C98.787 9.31923 98.5498 9.04686 98.2057 8.83474C97.8607 8.62346 97.3631 8.51739 96.7111 8.51739V8.33581H101.933V8.51739C101.367 8.51739 100.902 8.76261 100.54 9.25305C100.177 9.74349 99.7986 10.497 99.4053 11.5135L93.5004 26.8554H93.3159L87.411 11.5135C87.0048 10.5088 86.6236 9.75876 86.2665 9.26238C85.9095 8.766 85.4481 8.51824 84.8824 8.51824L84.8832 8.51654Z" fill="#1B1B1B"/>
<path d="M102.488 26.4914V26.3098C102.881 26.3098 103.192 26.2258 103.42 26.0553C103.647 25.8856 103.817 25.6081 103.928 25.2203C104.038 24.8334 104.109 24.3311 104.14 23.7134C104.17 23.0957 104.186 22.3396 104.186 21.4436V13.3828C104.186 12.4876 104.171 11.7307 104.14 11.113C104.109 10.4953 104.038 9.9938 103.928 9.60603C103.817 9.21826 103.647 8.9408 103.42 8.7711C103.192 8.60224 102.882 8.51654 102.488 8.51654V8.33496H115.7V10.7863H115.515V10.7133C115.515 10.0956 114.936 9.57549 113.781 9.15208C112.624 8.72867 110.976 8.51654 108.836 8.51654H105.772V16.3237C106.055 16.0573 106.375 15.8519 106.732 15.706C107.089 15.5609 107.483 15.4879 107.914 15.4879C108.368 15.4879 108.781 15.5456 109.15 15.6602C109.519 15.7756 109.876 15.9054 110.22 16.0505C110.564 16.1956 110.909 16.3262 111.253 16.4408C111.597 16.5562 111.972 16.613 112.378 16.613C112.736 16.613 113.052 16.5197 113.329 16.3313C113.606 16.1438 113.745 15.8927 113.745 15.5779H113.929C113.929 16.1226 113.72 16.5918 113.301 16.9847C112.883 17.3784 112.305 17.5744 111.567 17.5744C111.001 17.5744 110.512 17.493 110.1 17.3292C109.688 17.1663 109.309 16.9872 108.965 16.7938C108.621 16.6003 108.301 16.4187 108.005 16.249C107.71 16.0793 107.396 15.9885 107.064 15.9767C106.794 15.9648 106.548 16.0191 106.326 16.1396C106.104 16.2609 105.92 16.4179 105.772 16.6113V26.3064H108.135C108.43 26.3064 108.814 26.2971 109.288 26.2793C109.761 26.2615 110.272 26.2224 110.819 26.1614C111.367 26.1011 111.92 26.0069 112.48 25.8796C113.04 25.7524 113.544 25.5861 113.994 25.3799C114.443 25.1745 114.809 24.9166 115.092 24.6086C115.374 24.2997 115.516 23.9281 115.516 23.4919H115.7V26.488H102.488L102.488 26.4914Z" fill="#1B1B1B"/>
<path d="M116.806 26.309C117.199 26.309 117.511 26.225 117.738 26.0544C117.966 25.8847 118.135 25.6073 118.246 25.2195C118.357 24.8326 118.427 24.3303 118.458 23.7125C118.489 23.0948 118.505 22.3388 118.505 21.4428V13.3819C118.505 12.4867 118.489 11.7299 118.458 11.1121C118.427 10.4944 118.357 9.99295 118.246 9.60518C118.136 9.21741 117.966 8.93995 117.738 8.77024C117.511 8.60139 117.2 8.51569 116.806 8.51569V8.33411H121.788V8.51569C121.394 8.51569 121.084 8.60054 120.856 8.77024C120.628 8.93995 120.459 9.21825 120.349 9.60518C120.238 9.99295 120.167 10.4944 120.137 11.1121C120.106 11.7299 120.09 12.4859 120.09 13.3819V26.309H122.434C122.729 26.309 123.114 26.2996 123.587 26.2818C124.061 26.264 124.571 26.225 125.119 26.1639C125.666 26.1036 126.219 26.0095 126.78 25.8822C127.339 25.7549 127.844 25.5886 128.293 25.3824C128.743 25.1771 129.108 24.9191 129.391 24.6111C129.674 24.3023 129.815 23.9306 129.815 23.4945H130V26.4906H116.806V26.309Z" fill="#1B1B1B"/>
</svg>
