<svg width="60" height="60" viewBox="0 0 60 60" fill="none" xmlns="http://www.w3.org/2000/svg">
<path d="M30 60C13.4581 60 0 46.5419 0 30C0 13.4581 13.4581 0 30 0C46.5419 0 60 13.4581 60 30C60 46.5419 46.5419 60 30 60ZM30 1.05613C14.0403 1.05613 1.05613 14.0403 1.05613 30C1.05613 45.9597 14.0403 58.9439 30 58.9439C45.9597 58.9439 58.9439 45.9597 58.9439 30C58.9439 14.0403 45.9597 1.05613 30 1.05613Z" fill="white"/>
<path d="M30 57.9658C14.5799 57.9658 2.03406 45.4206 2.03406 30C2.03406 14.5794 14.5794 2.03406 30 2.03406C45.4206 2.03406 57.9658 14.5794 57.9658 30C57.9658 45.4206 45.4206 57.9658 30 57.9658ZM30 2.46944C14.8198 2.46944 2.46944 14.8193 2.46944 30C2.46944 45.1806 14.8193 57.5305 30 57.5305C45.1806 57.5305 57.5305 45.1806 57.5305 30C57.5305 14.8193 45.1806 2.46944 30 2.46944Z" fill="white"/>
<path d="M18.0959 9.12988L19.5168 11.3719C19.7528 11.7447 19.8234 12.1129 19.7272 12.4771C19.6315 12.8414 19.3815 13.1515 18.9782 13.4075C18.5804 13.6595 18.1981 13.7542 17.8314 13.6921C17.4642 13.63 17.1621 13.416 16.9241 13.0513L15.4872 10.7837L16.1886 10.3393L17.6125 12.5864C17.7538 12.8093 17.9096 12.9381 18.0814 12.9721C18.2528 13.0067 18.4331 12.9641 18.6215 12.8449C19.0158 12.5949 19.0844 12.2607 18.8284 11.8419L17.393 9.57628L18.0969 9.13038L18.0959 9.12988Z" fill="white"/>
<path d="M24.4634 10.8434L23.6833 11.1275L21.2569 9.18955L22.1647 11.6811L21.3847 11.9651L20.0054 8.17851L20.7854 7.89444L23.2163 9.83686L22.3065 7.34032L23.0841 7.05725L24.4639 10.8439L24.4634 10.8434Z" fill="white"/>
<path d="M27.0234 8.88297L26.3681 8.97265L26.5685 10.4341L25.7458 10.5468L25.1987 6.55427L26.6817 6.35086C27.1537 6.28623 27.5319 6.34134 27.8165 6.51669C28.1011 6.69205 28.2699 6.97161 28.3225 7.35539C28.3601 7.62793 28.332 7.86291 28.2394 8.06131C28.1462 8.25921 27.9874 8.42855 27.7629 8.56933L28.8506 10.0829L28.8561 10.1215L27.9728 10.2422L27.0239 8.88347L27.0234 8.88297ZM26.2769 8.3063L26.9402 8.21512C27.1467 8.18706 27.2995 8.11241 27.3987 7.99167C27.4979 7.87092 27.5344 7.71862 27.5094 7.53374C27.4838 7.34537 27.4097 7.20458 27.2879 7.11139C27.1662 7.01821 26.9949 6.98664 26.7734 7.0172L26.1126 7.10739L26.2769 8.3058V8.3063Z" fill="white"/>
<path d="M32.2621 9.429L30.8097 9.3283L30.4765 10.1374L29.5957 10.0763L31.3713 6.15991L32.1388 6.21302L33.3648 10.3378L32.484 10.2767L32.2631 9.429H32.2621ZM31.0802 8.67298L32.0852 8.74262L31.6844 7.20302L31.0802 8.67298Z" fill="white"/>
<path d="M35.8152 9.93999L37.5036 7.26259L38.3944 7.50909L35.9675 11.0192L35.1323 10.7882L34.8597 6.53162L35.748 6.77761L35.8147 9.94049L35.8152 9.93999Z" fill="white"/>
<path d="M41.1665 11.3318L39.7426 10.6149L39.2572 11.5793L40.9285 12.4205L40.6289 13.0162L38.2161 11.8018L40.0277 8.20203L42.4356 9.41397L42.133 10.0147L40.4666 9.17599L40.0352 10.0337L41.4591 10.7507L41.1665 11.3318Z" fill="white"/>
<path d="M42.6195 13.5924L44.0263 14.655L43.624 15.1871L41.5543 13.6239L43.9832 10.408L44.6456 10.9085L42.619 13.5919L42.6195 13.5924Z" fill="white"/>
<path d="M11.3353 37.5822L10.9621 36.4054L7.76163 37.4204L7.51062 36.6288L10.7111 35.6138L10.3428 34.4529L10.9841 34.2495L11.9766 37.3783L11.3358 37.5817L11.3353 37.5822Z" fill="white"/>
<path d="M11.5588 39.5388C11.8844 39.6004 12.1249 39.7713 12.2817 40.0518C12.5973 40.619 12.428 41.0904 11.7732 41.4657L10.0973 42.3991L9.70802 41.7002L11.3644 40.7778C11.5147 40.6941 11.6074 40.5999 11.6429 40.4957C11.6785 40.3915 11.6549 40.2643 11.5713 40.1145C11.4576 39.9095 11.2957 39.8053 11.0868 39.8013L9.22705 40.8369L8.83777 40.138L12.5523 38.0693L12.9415 38.7682L11.5588 39.5383V39.5388Z" fill="white"/>
<path d="M12.0027 45.0258C11.7211 44.6891 11.5949 44.3284 11.6244 43.9441C11.654 43.5593 11.8409 43.2237 12.1846 42.9356L12.2442 42.886C12.4747 42.6931 12.7182 42.5648 12.9747 42.5017C13.2312 42.4386 13.4767 42.4481 13.7117 42.5288C13.9466 42.6099 14.152 42.7552 14.3274 42.9646C14.5904 43.2788 14.6981 43.6089 14.6505 43.9551C14.6035 44.3013 14.3985 44.6265 14.0348 44.9306L13.7843 45.14L12.5608 43.6776C12.4276 43.8229 12.3574 43.9832 12.3499 44.1591C12.3429 44.3344 12.4035 44.4987 12.5313 44.6515C12.7287 44.888 12.9692 45.0008 13.2517 44.9907L13.1666 45.5744C12.9596 45.5914 12.7537 45.5519 12.5493 45.4557C12.3449 45.3595 12.163 45.2157 12.0032 45.0248L12.0027 45.0258ZM13.8314 43.3765C13.7292 43.2547 13.6054 43.1906 13.4596 43.1841C13.3134 43.1771 13.155 43.2277 12.9837 43.3349L13.6976 44.1881L13.7467 44.147C13.8805 44.0303 13.9556 43.905 13.9707 43.7718C13.9862 43.6385 13.9396 43.5067 13.8309 43.3765H13.8314Z" fill="white"/>
<path d="M18.7793 49.2077L20.1191 47.7948L20.7754 48.2022L18.5469 50.3435L17.9777 49.9903L18.4898 48.0894L17.0138 49.3916L16.4471 49.0399L17.3775 46.0924L18.0338 46.4997L17.3615 48.3234L18.831 46.9947L19.3224 47.2998L18.7798 49.2077H18.7793Z" fill="white"/>
<path d="M22.4228 52.0014C22.4117 51.9212 22.4167 51.828 22.4368 51.7218C22.1818 51.8606 21.9087 51.8776 21.6166 51.7739C21.3401 51.6757 21.1397 51.5144 21.0144 51.2899C20.8897 51.0655 20.8701 50.8315 20.9568 50.588C21.063 50.2889 21.2554 50.099 21.534 50.0174C21.8125 49.9362 22.1612 49.9693 22.5811 50.1166L22.9278 50.2398L22.9854 50.078C23.0315 49.9477 23.035 49.831 22.9959 49.7293C22.9568 49.6271 22.8652 49.5504 22.7209 49.4993C22.5941 49.4542 22.4834 49.4492 22.3897 49.4843C22.296 49.5194 22.2304 49.59 22.1928 49.6962L21.4388 49.4287C21.4969 49.2648 21.6011 49.1316 21.7514 49.0284C21.9017 48.9252 22.0831 48.8665 22.2955 48.853C22.5079 48.8395 22.7289 48.873 22.9583 48.9547C23.306 49.078 23.551 49.2638 23.6933 49.5108C23.8356 49.7578 23.8506 50.0399 23.7379 50.3565L23.3035 51.58C23.2098 51.848 23.1758 52.064 23.1998 52.2273L23.1838 52.2719L22.4223 52.0014H22.4228ZM21.9859 51.2554C22.0971 51.2949 22.2083 51.3065 22.3201 51.2904C22.4318 51.2744 22.525 51.2328 22.5996 51.1652L22.772 50.6802L22.4904 50.58C22.1131 50.4462 21.8656 50.5053 21.7489 50.7573L21.7304 50.8009C21.6973 50.8946 21.7023 50.9838 21.7469 51.0685C21.791 51.1526 21.8706 51.2153 21.9854 51.2559L21.9859 51.2554Z" fill="white"/>
<path d="M26.1567 51.7429L26.9989 49.9919L27.8461 50.1281L26.1081 53.3526L26.0174 53.4979C25.7784 53.8556 25.4558 54.0019 25.0499 53.9363C24.9347 53.9178 24.8215 53.8817 24.7083 53.8281L24.8044 53.2294L24.9237 53.2514C25.0735 53.2755 25.1882 53.2705 25.2699 53.2369C25.351 53.2033 25.4207 53.1367 25.4798 53.038L25.6121 52.81L25.0534 49.6782L25.9032 49.815L26.1567 51.7424V51.7429Z" fill="white"/>
<path d="M31.8993 49.3019L31.971 50.0344L32.481 49.9843L32.5381 50.5679L32.0286 50.618L32.1739 52.1055C32.1849 52.2153 32.2135 52.2924 32.2606 52.336C32.3072 52.3796 32.3903 52.3956 32.5101 52.3841C32.5982 52.3751 32.6754 52.3611 32.742 52.342L32.8012 52.9452C32.6499 53.0084 32.491 53.0479 32.3262 53.064C31.7681 53.1186 31.4554 52.8646 31.3893 52.3019L31.232 50.6957L30.7966 50.7383L30.7395 50.1546L31.1744 50.112L31.1027 49.3791L31.8988 49.3014L31.8993 49.3019Z" fill="white"/>
<path d="M33.7951 51.2864C33.72 50.9993 33.7074 50.7283 33.7595 50.4748C33.8111 50.2208 33.9244 50.0048 34.0997 49.827C34.2751 49.6491 34.5005 49.5239 34.7756 49.4522C35.1664 49.3495 35.5166 49.3851 35.8267 49.5594C36.1368 49.7338 36.3603 50.0224 36.4966 50.4252L36.5537 50.6216C36.6704 51.066 36.6404 51.4552 36.4625 51.7889C36.2851 52.1226 35.9875 52.3445 35.5697 52.4543C35.1524 52.564 34.7836 52.5179 34.4645 52.3155C34.1453 52.1131 33.9254 51.7819 33.8041 51.3215L33.7951 51.2864ZM34.5832 51.1381C34.6558 51.4132 34.7626 51.6101 34.9044 51.7288C35.0461 51.8475 35.2135 51.8811 35.4064 51.8305C35.5937 51.7814 35.721 51.6707 35.7886 51.4993C35.8563 51.328 35.8483 51.084 35.7651 50.7674C35.6939 50.4973 35.5867 50.3019 35.4424 50.1812C35.2981 50.0604 35.1303 50.0254 34.9394 50.0755C34.75 50.1251 34.6233 50.2373 34.5587 50.4116C34.4935 50.5865 34.502 50.8285 34.5832 51.1376V51.1381Z" fill="white"/>
<path d="M39.6745 46.6506L40.0447 47.2869L40.4871 47.0294L40.7827 47.5364L40.3403 47.7939L41.0923 49.0855C41.148 49.1812 41.2066 49.2389 41.2672 49.2594C41.3278 49.2794 41.41 49.2594 41.5142 49.1988C41.5903 49.1542 41.655 49.1091 41.7076 49.0635L42.0127 49.5876C41.901 49.7078 41.7737 49.81 41.6304 49.8937C41.1459 50.1757 40.7562 50.075 40.4616 49.5911L39.6494 48.1968L39.2717 48.4167L38.9761 47.9097L39.3543 47.6897L38.9841 47.0534L39.6755 46.6506H39.6745Z" fill="white"/>
<path d="M43.2356 45.9306C43.1405 45.9858 43.0603 46.0394 42.9947 46.09C42.7562 46.2758 42.6625 46.4783 42.7141 46.6982L43.9175 48.2443L43.2862 48.7358L41.4465 46.3725L42.0427 45.9081L42.2792 46.1761C42.2371 45.8605 42.3283 45.6155 42.5528 45.4412C42.6229 45.3865 42.6956 45.3455 42.7717 45.3164L43.2356 45.9301V45.9306Z" fill="white"/>
<path d="M46.9091 45.4511C46.8309 45.4291 46.7478 45.387 46.6581 45.3259C46.6836 45.6149 46.59 45.8725 46.378 46.0989C46.1776 46.3129 45.9497 46.4326 45.6937 46.4571C45.4381 46.4817 45.2157 46.406 45.0273 46.2297C44.7958 46.0127 44.6981 45.7602 44.7347 45.4727C44.7718 45.1851 44.9416 44.8785 45.2437 44.5523L45.4953 44.2833L45.37 44.166C45.2688 44.0713 45.1641 44.0217 45.0544 44.0167C44.9456 44.0117 44.8384 44.0653 44.7337 44.177C44.642 44.2752 44.5934 44.3749 44.5879 44.4747C44.5829 44.5749 44.621 44.663 44.7032 44.7402L44.1566 45.3239C44.0303 45.2056 43.9496 45.0568 43.9146 44.8775C43.88 44.6986 43.899 44.5087 43.9712 44.3088C44.0438 44.1089 44.1631 43.9195 44.3294 43.7417C44.5814 43.4721 44.8495 43.3218 45.133 43.2903C45.4166 43.2587 45.6806 43.3579 45.9261 43.5874L46.8735 44.4747C47.0825 44.6675 47.2663 44.7853 47.4256 44.8284L47.4597 44.8604L46.9076 45.4506L46.9091 45.4511ZM46.0509 45.5533C46.1315 45.4671 46.1866 45.3695 46.2162 45.2607C46.2458 45.152 46.2448 45.0498 46.2132 44.9546L45.8374 44.6024L45.633 44.8208C45.3595 45.1134 45.3149 45.3634 45.4993 45.5714L45.5318 45.6054C45.6045 45.6736 45.6886 45.7041 45.7833 45.6971C45.8785 45.6901 45.9677 45.642 46.0509 45.5533Z" fill="white"/>
<path d="M48.2718 42.0518L46.8795 40.4891L47.3334 39.7872L49.2999 42.2617L48.8851 42.903L45.8219 42.1254L46.2758 41.4235L48.2723 42.0518H48.2718Z" fill="white"/>
<path d="M51.1552 38.7351C50.9879 39.141 50.7273 39.4205 50.3726 39.5728C50.0184 39.7251 49.6341 39.7156 49.2193 39.5448L49.1477 39.5152C48.8696 39.4005 48.6431 39.2442 48.4683 39.0463C48.2939 38.8484 48.1877 38.6264 48.1501 38.3804C48.1126 38.1344 48.1461 37.8854 48.2503 37.6329C48.4067 37.2542 48.6492 37.0056 48.9778 36.8864C49.3065 36.7672 49.6898 36.7982 50.1281 36.9791L50.4297 37.1039L49.7033 38.8669C49.8937 38.9175 50.0685 38.9055 50.2273 38.8298C50.3862 38.7547 50.5034 38.6249 50.579 38.4405C50.6968 38.1555 50.6853 37.8904 50.545 37.6449L51.1016 37.4495C51.2128 37.6249 51.2734 37.8258 51.283 38.0513C51.293 38.2767 51.2504 38.5047 51.1552 38.7351ZM48.845 37.8814C48.7844 38.0282 48.7854 38.1675 48.8471 38.2998C48.9092 38.432 49.0269 38.5488 49.2013 38.651L49.6256 37.6224L49.5665 37.5978C49.4007 37.5337 49.2554 37.5252 49.1301 37.5733C49.0049 37.6214 48.9102 37.7241 48.845 37.8809V37.8814Z" fill="white"/>
<path d="M52.2088 35.2019L52.0169 35.9815L47.8885 34.966L48.0804 34.1864L52.2088 35.2019Z" fill="white"/>
<path d="M9.14344 33.8548C8.90095 32.5536 8.7782 31.2169 8.7782 29.8817C8.7782 24.5705 10.7271 19.4687 14.2658 15.5148L14.5158 15.7382C11.0322 19.6301 9.11388 24.6532 9.11388 29.8812C9.11388 31.1959 9.23462 32.512 9.4736 33.7926L9.14394 33.8543L9.14344 33.8548Z" fill="white"/>
<path d="M51.5214 33.8011L51.1918 33.7405C51.4237 32.4764 51.5415 31.1778 51.5415 29.8817C51.5415 24.6446 49.6176 19.6155 46.1235 15.7211L46.373 15.4972C49.9222 19.4537 51.8766 24.5625 51.8766 29.8822C51.8766 31.1989 51.7569 32.5175 51.5209 33.8016L51.5214 33.8011Z" fill="white"/>
<path d="M18.8705 16.5795H25.7093C25.783 16.5795 25.8426 16.6391 25.8426 16.7127C25.8426 16.7849 25.784 16.8425 25.7118 16.845C25.2118 16.863 24.8125 16.9853 24.5134 17.2112C24.1887 17.4572 23.9478 17.8606 23.7899 18.4217C23.6321 18.9833 23.5309 19.7113 23.4873 20.6056C23.4432 21.5004 23.4217 22.5971 23.4217 23.8947V34.3197C23.4217 35.6003 23.5925 36.7146 23.9347 37.6615C24.2769 38.6089 24.7459 39.398 25.3426 40.0298C25.9388 40.6615 26.6407 41.131 27.4478 41.4376C28.2544 41.7442 29.1227 41.898 30.0531 41.898C30.9834 41.898 31.8467 41.7402 32.6453 41.4246C33.4434 41.1089 34.1318 40.635 34.711 40.0037C35.2901 39.3719 35.7461 38.5828 36.0792 37.6354C36.4124 36.688 36.5792 35.5828 36.5792 34.3197V23.8947C36.5792 22.5966 36.5572 21.4999 36.5136 20.6056C36.4695 19.7108 36.3688 18.9833 36.211 18.4217C36.0532 17.8606 35.8117 17.4572 35.4875 17.2112C35.1884 16.9853 34.7891 16.863 34.2891 16.845C34.217 16.8425 34.1584 16.7849 34.1584 16.7127C34.1584 16.6391 34.218 16.5795 34.2916 16.5795H41.1304C41.2041 16.5795 41.2637 16.6391 41.2637 16.7127C41.2637 16.7849 41.2051 16.8425 41.1329 16.845C40.6329 16.863 40.2336 16.9853 39.9345 17.2112C39.6098 17.4572 39.3689 17.8606 39.211 18.4217C39.0532 18.9833 38.952 19.7113 38.9084 20.6056C38.8643 21.5004 38.8428 22.5971 38.8428 23.8947V35.5783C38.8428 36.8939 38.6098 38.0433 38.1454 39.0257C37.6805 40.0082 37.0532 40.8244 36.2641 41.4732C35.4745 42.1225 34.5446 42.6095 33.475 42.9336C32.4048 43.2583 31.2645 43.4206 30.0541 43.4206C28.8436 43.4206 27.6988 43.2628 26.6201 42.9471C25.5415 42.6315 24.5981 42.149 23.7914 41.4997C22.9843 40.8509 22.344 40.0353 21.8706 39.0523C21.3971 38.0698 21.1601 36.912 21.1601 35.5788V23.8952C21.1601 22.5971 21.1381 21.5004 21.0945 20.6061C21.0504 19.7113 20.9497 18.9838 20.7919 18.4222C20.6341 17.8611 20.3926 17.4577 20.0684 17.2117C19.7693 16.9858 19.37 16.8635 18.87 16.8455C18.7979 16.843 18.7393 16.7854 18.7393 16.7132C18.7393 16.6396 18.7989 16.58 18.8725 16.58L18.8705 16.5795Z" fill="white"/>
</svg>
