<svg width="123" height="25" viewBox="0 0 123 25" fill="none" xmlns="http://www.w3.org/2000/svg">
<path fill-rule="evenodd" clip-rule="evenodd" d="M60 0H122.5V25H60V0ZM88.311 15.0992C88.311 14.9099 88.284 14.74 88.2295 14.5896C88.1755 14.4336 88.075 14.2887 87.9285 14.1551C87.782 14.0214 87.5705 13.8877 87.294 13.754C87.023 13.6147 86.665 13.4699 86.22 13.3195C85.6995 13.1412 85.198 12.9408 84.715 12.7179C84.2325 12.4896 83.801 12.225 83.4215 11.9242C83.042 11.6178 82.741 11.2612 82.5185 10.8546C82.296 10.4424 82.185 9.96335 82.185 9.41745C82.185 8.89385 82.299 8.42315 82.5265 8.00535C82.7545 7.582 83.072 7.2227 83.4785 6.92745C83.8905 6.6267 84.3735 6.3983 84.9265 6.2423C85.48 6.08075 86.0845 6 86.741 6C87.6085 6 88.3735 6.156 89.035 6.4679C89.702 6.7743 90.2225 7.21155 90.597 7.77975C90.9765 8.34235 91.1665 9.00805 91.1665 9.77675H88.327C88.327 9.47035 88.265 9.2002 88.14 8.96625C88.021 8.7323 87.839 8.54845 87.595 8.4148C87.351 8.2811 87.0445 8.21425 86.6755 8.21425C86.3175 8.21425 86.017 8.26995 85.7725 8.38135C85.5285 8.49275 85.344 8.64315 85.2195 8.83255C85.0945 9.01635 85.0325 9.2197 85.0325 9.4425C85.0325 9.62635 85.081 9.79345 85.179 9.94385C85.282 10.0887 85.4255 10.2251 85.61 10.3532C85.8 10.4814 86.0275 10.6039 86.2935 10.7209C86.5645 10.8379 86.8685 10.9521 87.2045 11.0635C87.8335 11.2696 88.3925 11.5008 88.8805 11.757C89.374 12.0077 89.789 12.2945 90.125 12.6177C90.467 12.9352 90.7245 13.2972 90.898 13.7038C91.077 14.1105 91.1665 14.5701 91.1665 15.0826C91.1665 15.6285 91.0635 16.1131 90.8575 16.5364C90.651 16.9598 90.3555 17.3191 89.9705 17.6143C89.5855 17.9039 89.1245 18.124 88.5875 18.2744C88.0505 18.4248 87.4515 18.5 86.7895 18.5C86.182 18.5 85.583 18.422 84.9915 18.2661C84.406 18.1045 83.8745 17.8594 83.397 17.5308C82.92 17.1965 82.5375 16.7704 82.25 16.2523C81.968 15.7287 81.827 15.1076 81.827 14.389H84.6905C84.6905 14.7455 84.737 15.0463 84.829 15.2914C84.921 15.5365 85.057 15.7343 85.236 15.8847C85.4145 16.0296 85.6345 16.1353 85.8945 16.2022C86.155 16.2635 86.4535 16.2941 86.7895 16.2941C87.153 16.2941 87.446 16.2412 87.668 16.1353C87.8905 16.0239 88.0535 15.8791 88.1565 15.7008C88.2595 15.517 88.311 15.3165 88.311 15.0992ZM69.3475 18.3329V6.1671H66.5V18.3329H69.3475ZM74.2125 14.2052H76.0835C77.0325 14.2052 77.849 14.0436 78.532 13.7206C79.221 13.392 79.75 12.9352 80.1185 12.3503C80.4875 11.7654 80.672 11.0802 80.672 10.2948C80.672 9.4982 80.4875 8.79075 80.1185 8.17245C79.75 7.54855 79.221 7.0584 78.532 6.70185C77.849 6.34535 77.0325 6.1671 76.0835 6.1671H71.357V18.3329H74.2125V14.2052ZM74.2125 11.9409V8.4315H76.0835C76.485 8.4315 76.81 8.5206 77.0595 8.69885C77.309 8.87155 77.491 9.09995 77.605 9.384C77.724 9.6681 77.784 9.9773 77.784 10.3115C77.784 10.6234 77.724 10.9047 77.605 11.1554C77.491 11.4005 77.309 11.5927 77.0595 11.7319C76.81 11.8712 76.485 11.9409 76.0835 11.9409H74.2125ZM101.922 6.1671H99.066V14.1133C99.066 14.6147 98.998 15.0241 98.8625 15.3416C98.727 15.6535 98.526 15.8819 98.2605 16.0268C97.995 16.1716 97.6665 16.244 97.276 16.244C96.891 16.244 96.563 16.1716 96.2915 16.0268C96.0205 15.8819 95.8145 15.6535 95.6735 15.3416C95.5325 15.0241 95.462 14.6147 95.462 14.1133V6.1671H92.5985V14.1133C92.5985 15.0603 92.7935 15.8624 93.184 16.5197C93.58 17.1714 94.1275 17.6644 94.8275 17.9986C95.5325 18.3329 96.3485 18.5 97.276 18.5C98.2145 18.5 99.0305 18.3329 99.725 17.9986C100.419 17.6644 100.959 17.1714 101.344 16.5197C101.729 15.8624 101.922 15.0603 101.922 14.1133V6.1671ZM106.128 6.1671H107.462L110.105 14.6313L112.749 6.1671H114.084H115.076H116.5V18.3329H113.636V15.492L113.915 9.6739L111.049 18.3329H109.162L106.296 9.6739L106.575 15.492V18.3329H103.719V6.1671H105.135H106.128ZM18.3625 12.2577V12.7507C18.3625 13.6809 18.2362 14.5165 17.9837 15.2573C17.7365 15.9927 17.3845 16.6221 16.9277 17.1457C16.4709 17.6637 15.9309 18.062 15.3075 18.3406C14.6841 18.6135 13.9962 18.75 13.2439 18.75C12.4862 18.75 11.7929 18.6135 11.1642 18.3406C10.5408 18.062 9.9981 17.6637 9.53595 17.1457C9.07915 16.6221 8.7245 15.9927 8.4719 15.2573C8.22475 14.5165 8.10115 13.6809 8.10115 12.7507V12.2577C8.10115 11.3274 8.22475 10.4918 8.4719 9.751C8.7245 9.01015 9.0765 8.3807 9.5279 7.86265C9.9846 7.339 10.5247 6.94075 11.1481 6.6678C11.7769 6.38925 12.4701 6.25 13.2278 6.25C13.9801 6.25 14.6679 6.38925 15.2913 6.6678C15.9201 6.94075 16.4628 7.339 16.9196 7.86265C17.3764 8.3807 17.7311 9.01015 17.9837 9.751C18.2362 10.4918 18.3625 11.3274 18.3625 12.2577ZM15.4929 12.7507V12.241C15.4929 11.6393 15.4418 11.1102 15.3397 10.6534C15.243 10.1911 15.0979 9.8039 14.9044 9.49195C14.7109 9.18005 14.4718 8.9461 14.187 8.7901C13.9076 8.62855 13.5879 8.5478 13.2278 8.5478C12.8516 8.5478 12.5238 8.62855 12.2444 8.7901C11.9649 8.9461 11.7312 9.18005 11.5431 9.49195C11.355 9.8039 11.2126 10.1911 11.1159 10.6534C11.0245 11.1102 10.9788 11.6393 10.9788 12.241V12.7507C10.9788 13.3467 11.0245 13.8759 11.1159 14.3383C11.2126 14.795 11.355 15.1821 11.5431 15.4997C11.7365 15.8172 11.9729 16.0567 12.2524 16.2183C12.5372 16.3798 12.8678 16.4606 13.2439 16.4606C13.604 16.4606 13.9237 16.3798 14.2031 16.2183C14.4826 16.0567 14.7163 15.8172 14.9044 15.4997C15.0979 15.1821 15.243 14.795 15.3397 14.3383C15.4418 13.8759 15.4929 13.3467 15.4929 12.7507ZM7.7545 16.3269V18.5829H2.82934H1.82171H0V6.4171H2.82934V16.3269H7.7545ZM24.4485 6.4171H19.8296V18.5829H22.659V14.2881H24.1824L26.254 18.5829H29.2849V18.4576L26.8387 13.5496C27.1543 13.3922 27.4404 13.2094 27.6969 13.0014C28.073 12.695 28.3659 12.3078 28.5756 11.8399C28.7851 11.372 28.8899 10.7899 28.8899 10.0936C28.8899 9.29145 28.7072 8.61745 28.3418 8.0715C27.9818 7.5256 27.4685 7.1134 26.8022 6.8349C26.1358 6.55635 25.3512 6.4171 24.4485 6.4171ZM22.659 12.0238H24.4485C24.8085 12.0238 25.1067 11.9569 25.3431 11.8232C25.5796 11.6895 25.757 11.5001 25.8752 11.255C25.9988 11.0043 26.0606 10.7064 26.0606 10.361C26.0606 10.0101 25.9988 9.70925 25.8752 9.45855C25.7516 9.2079 25.5688 9.0157 25.327 8.882C25.0906 8.7483 24.7978 8.6815 24.4485 8.6815H22.659V12.0238ZM38.6757 16.3269V18.5829H33.4282H32.4206H30.5988V6.4171H32.4206H33.4282H38.6999V8.6815H33.4282V11.2466H37.8697V13.4275H33.4282V16.3269H38.6757ZM43.5444 6.4171H42.2225H41.2391H39.8365V18.5829H42.6659V15.742L42.3892 9.9239L45.2291 18.5829H47.0993L49.9392 9.92385L49.6626 15.742V18.5829H52.5V6.4171H51.0895H50.106H48.784L46.1642 14.8813L43.5444 6.4171Z" fill="white"/>
</svg>
