<?xml version="1.0" encoding="UTF-8"?>
<svg id="Capa_1" data-name="Capa 1" xmlns="http://www.w3.org/2000/svg" viewBox="0 0 30 30">
  <defs>
    <style>
      .cls-1 {
        fill: #fff;
      }

      .cls-2 {
        fill: #0086ba;
      }
    </style>
  </defs>
  <circle class="cls-1" cx="15" cy="15" r="15"/>
  <circle class="cls-2" cx="15" cy="15" r="12.5"/>
  <path class="cls-1" d="M15.34,10.75c1.44,0,1.98,.71,2.03,1.75h1.79c-.06-1.43-.91-2.75-2.6-3.17v-1.83h-2.43v1.8c-.32,.07-.61,.18-.89,.3l1.22,1.26c.26-.07,.56-.11,.88-.11m-5.7-2.48l-1.14,1.17,2.79,2.87c0,1.73,1.27,2.68,3.17,3.26l2.85,2.93c-.28,.41-.85,.76-1.96,.76-1.67,0-2.33-.77-2.42-1.75h-1.78c.1,1.83,1.43,2.85,2.98,3.19v1.81h2.43v-1.79c.78-.15,1.48-.46,2-.93l1.8,1.85,1.14-1.17L9.64,8.27Z"/>
</svg>