<?xml version="1.0" encoding="UTF-8"?>
<svg id="Capa_1" data-name="Capa 1" xmlns="http://www.w3.org/2000/svg" viewBox="0 0 30 30">
  <defs>
    <style>
      .cls-1 {
        fill: #fff;
      }

      .cls-2 {
        fill: #0086ba;
      }
    </style>
  </defs>
  <circle class="cls-1" cx="15" cy="15" r="15"/>
  <circle class="cls-2" cx="15" cy="15" r="12.5"/>
  <path class="cls-1" d="M15.31,14.08c-1.78-.49-2.36-1-2.36-1.79,0-.91,.79-1.54,2.12-1.54,1.4,0,1.92,.71,1.96,1.75h1.74c-.06-1.43-.88-2.75-2.52-3.17v-1.83h-2.36v1.8c-1.52,.35-2.75,1.4-2.75,3.01,0,1.93,1.5,2.88,3.69,3.44,1.96,.5,2.36,1.23,2.36,2.01,0,.57-.39,1.49-2.12,1.49-1.62,0-2.26-.77-2.34-1.75h-1.73c.09,1.83,1.38,2.85,2.89,3.19v1.81h2.36v-1.79c1.53-.31,2.75-1.25,2.75-2.96,0-2.37-1.91-3.18-3.69-3.67"/>
</svg>