<?xml version="1.0" encoding="UTF-8"?>
<svg id="Capa_1" data-name="Capa 1" xmlns="http://www.w3.org/2000/svg" viewBox="0 0 30 30">
  <defs>
    <style>
      .cls-1 {
        fill: #fff;
      }

      .cls-2 {
        fill: #ff8c42;
      }
    </style>
  </defs>
  <circle class="cls-1" cx="15" cy="15" r="15"/>
  <circle class="cls-2" cx="15" cy="15" r="12.5"/>
  <path class="cls-1" d="M10.33,19.5v1.5h-2.33v-6.75l1.91-5.25h10.19l1.91,5.25v6.75h-2.33v-1.5H10.33Zm-.16-6.75h9.64l-.82-2.25H10.99l-.82,2.25Zm1.32,4.5c.32,0,.6-.11,.83-.33s.34-.48,.34-.8-.11-.58-.34-.8-.5-.33-.83-.33-.6,.11-.83,.33-.34,.49-.34,.8,.11,.58,.34,.8c.23,.22,.5,.33,.83,.33m7,0c.32,0,.6-.11,.83-.33s.34-.48,.34-.8-.11-.58-.34-.8-.5-.33-.83-.33-.6,.11-.83,.33-.34,.49-.34,.8,.11,.58,.34,.8,.5,.33,.83,.33"/>
</svg>